<?xml version="1.0" ?>
<svg
    xmlns="http://www.w3.org/2000/svg"
    viewBox="0 0 16 16"
    fill="currentColor"
    class="injected-svg"
    data-src="https://pipestyle.staticpipefy.com/icons/interface/close-big-sm.svg"
    xmlns:xlink="http://www.w3.org/1999/xlink"
>
    <path d="M12.838 3.949a.556.556 0 0 0-.786-.786L8 7.214l-.394-.392-3.659-3.659a.55.55 0 0 0-.785 0 .556.556 0 0 0 0 .786l3.659 3.659.393.392-4.052 4.052a.556.556 0 0 0 .785.786l4.053-4.052 4.052 4.052a.553.553 0 0 0 .784 0 .556.556 0 0 0 0-.786L8.786 8l.393-.392 3.66-3.66Z"></path>
</svg>