<?xml version="1.0" ?>
<svg
    xmlns="http://www.w3.org/2000/svg"
    viewBox="0 0 16 16"
    fill="currentColor"
    class="injected-svg"
    data-src="https://pipestyle.staticpipefy.com/icons/interface/edit-sm.svg"
    xmlns:xlink="http://www.w3.org/1999/xlink"
>
    <path d="M15.998 3.643c0-.669-.26-1.297-.732-1.769l-.17-.17C14.649 1.257 14.005 1 13.328 1c-.676 0-1.321.257-1.768.704l-9.414 9.414a.493.493 0 0 0-.146.354v3a.5.5 0 0 0 .5.5h3a.504.504 0 0 0 .353-.147l9.414-9.414a2.48 2.48 0 0 0 .731-1.768ZM12.44 6.825 5 13.971H3V12l7.146-7.469.354-.353 2.294 2.294-.354.353Zm2.121-2.121L13.5 5.765l-2.293-2.293.353-.354.707-.707a1.49 1.49 0 0 1 1.06-.429c.4 0 .787.156 1.061.429l.171.17c.586.585.586 1.537.002 2.123Z"></path>
</svg>