<?xml version="1.0" ?>
<svg
    xmlns="http://www.w3.org/2000/svg"
    viewBox="0 0 16 16"
    fill="currentColor"
    class="injected-svg"
    data-src="https://pipestyle.staticpipefy.com/icons/interface/hiperlink-sm.svg"
    xmlns:xlink="http://www.w3.org/1999/xlink"
>
    <path d="M3.654 5h1.044c.75 0 1.426.303 1.902.789.125.126.29.211.467.211.43 0 .697-.45.412-.77A3.713 3.713 0 0 0 4.698 4H3.654C1.636 4 0 5.567 0 7.5S1.636 11 3.654 11h1.044c1.113 0 2.11-.477 2.78-1.23.286-.32.019-.77-.41-.77a.663.663 0 0 0-.468.211A2.657 2.657 0 0 1 4.698 10H3.654c-1.442 0-2.61-1.12-2.61-2.5S2.212 5 3.654 5ZM12.346 10h-1.044c-.75 0-1.426-.303-1.902-.789A.663.663 0 0 0 8.933 9c-.43 0-.697.45-.412.77A3.713 3.713 0 0 0 11.302 11h1.044C14.364 11 16 9.433 16 7.5S14.364 4 12.346 4h-1.044c-1.113 0-2.11.477-2.78 1.23-.286.32-.019.77.41.77a.663.663 0 0 0 .468-.211A2.657 2.657 0 0 1 11.302 5h1.044c1.442 0 2.61 1.12 2.61 2.5s-1.168 2.5-2.61 2.5Z"></path>
    <path d="M4 7.5a.5.5 0 0 1 .5-.5h7a.5.5 0 0 1 0 1h-7a.5.5 0 0 1-.5-.5Z"></path>
</svg>